<svg viewBox="0 0 242.1 124" height="50">
   <g>
  <title>Layer 1</title>
  <path d="m32.99999,18.79998c-1,1 -1,2 -2,4c0,0 -1.4588,1.69344 -2,3c-0.38268,0.92388 -1.4588,1.69344 -2,3c-0.38268,0.92388 -0.14935,1.47427 -1,2c-1.90211,1.17557 -1.594,1.48699 -4,0c-2.68999,-1.66251 -5.29289,-0.29289 -6,-1c-0.70711,-0.70711 -0.38268,-2.07612 0,-3c0.5412,-1.30656 2,-2 2,-3c0,-1 1,-2 1,-3c0,-1 0,-2 0,-2c0,-1 0.29289,-2.29289 1,-3c0.70711,-0.70711 2,-1 3,-1c1,0 4,-1 6,-2c2,-1 2.34619,-1.70546 4,-4c1.30745,-1.81399 1.23463,-2.15224 2,-4c0.54119,-1.30656 2.18601,-1.30745 4,0c1.14727,0.82691 3.797,1.2565 5,2c2.68999,1.66251 2.69344,2.4588 4,3c0.92388,0.38268 2,0 2,1c0,0 1,1 1,2c0,1 -2.16042,1.96328 -3,6c-1.23863,5.95532 -1.48626,10.82375 -2,13c-0.68926,2.91975 0,6 0,7c0,4 0,5 0,7c0,1 0,2 0,4c0,2 0,4 0,5c0,2 0,4 0,5c0,1 0,2 0,3c0,2 0,3 0,4c0,3 0,4 0,5c0,2 0,3 0,4c0,1 -1,3 0,3c1,0 1,0 4,0c4,0 5,0 6,0c1,0 2,0 3,0c0,0 2.22836,-1.14805 5,0c1.30656,0.5412 3,1 4,1c1,0 2.29289,-0.70711 3,0c1.41422,1.41422 0,3 0,3c-1,1 -1.4588,2.69344 -2,4c-0.76537,1.84776 -1,2 -2,2c-1,0 -3,0 -4,0c0,0 -2,-1 -4,-1c-1,0 -3,0 -4,0c-1,0 -3,0 -4,0c-1,0 -2,0 -4,0c0,0 -1,0 -2,0c-2,0 -5,0 -9,0c-1,0 -5,0 -6,0c-2,0 -3,0 -3,0c-1,0 -3,0 -4,0c-3,0 -4.58579,1.41422 -6,0c-0.70711,-0.70711 0,-2 0,-3c0,-2 -0.70711,-2.29289 0,-3c0.70711,-0.70711 2,0 3,0c1,0 3,0 4,0c1,0 2.29289,0.70711 3,0c0.70711,-0.70711 1.4588,-0.69344 2,-2c0.38268,-0.92388 1,-1 2,-1c0,0 1,0 4,1c0,0 1,0 1,-1c0,-1 0.45881,-1.69344 1,-3c0.38268,-0.92388 0.48626,-2.82375 1,-5c0.45951,-1.9465 0,-4 0,-5c0,-2 -0.22975,-3.02675 0,-4c0.51374,-2.17625 1,-3 1,-5c0,-2 1.14805,-2.22836 0,-5c-0.54119,-1.30656 -1,-2 -1,-4c0,-1 0,-2 0,-3c0,-1 0,-2 0,-4c0,-1 0,-2 1,-2c0,0 0,-1 0,-2c0,-1 0,-2 0,-2c0,-1 0,-2 0,-3c0,-1 0,-2 0,-3c0,-1 0,-2 0,-3c0,-1 0,-2 0,-3c0,0 0,-1 0,-2c0,-1 0,-2 0,-2c0,-1 0.70711,-2.29289 0,-3c-0.70711,-0.70711 -1,-1 -1,-1c-1,0 -2,0 -2,0c-1,1 -1.07612,2.61732 -2,3c-1.30656,0.5412 -2,1 -3,3l0,1l-1,1l-1,0" id="svg_6" stroke="#000" fill="none"/>
  <path d="m110.99999,18.79998c0,0 1.37202,-1.3851 5,-4c3.44181,-2.48072 7.186,-3.69255 9,-5c1.14727,-0.82691 1.29289,-1.29289 2,-2c1.41421,-1.41421 2.99999,0 3.99999,0c0,0 1,0 2,0c3,0 6,0 7,0c1,0 1.09789,0.82443 3,2c1.70131,1.05146 2.58578,-0.41421 4,1c0.70711,0.70711 1,2 2,3c1,1 2,2 2,3c0,1 2,2 3,4c1,2 1,3 1,4c0,1 0.29289,1.29289 1,2c1.41422,1.41421 1,4 1,4c0,1 0,2 0,3c0,1 0,1 0,3c0,1 0,2 0,2c0,2 0,3 0,4c0,0 -1,0 -1,1c0,1 0,2 -1,3c0,0 0.38269,0.07612 0,1c-0.5412,1.30656 -2.29289,2.29289 -3,3c-0.70711,0.70711 0.05147,0.2987 -1,2c-1.17557,1.90211 -4.186,2.69255 -6,4c-2.29454,1.65381 -3,2 -4,2c-1,0 -1,1 -2,1c-1,0 -3,0 -4,1c-1,1 -4,2 -4,2c-2,0 -3.29288,0.29289 -3.99999,1c-0.70711,0.7071 -0.69344,2.4588 -2,3c-1.84776,0.76537 -2,1 -2,1c-1,2 -3.41422,3.58578 -2,5c0.70711,0.70711 2,1 2,1c2,0 3,0 4,0c1.99999,0 2.99999,0 3.99999,0c2,0 4.07613,0.38268 5,0c1.30656,-0.5412 2,-1 3,-1c0,0 1,-1 3,-1c1,0 1,-1 2,-1c3,0 5,0 7,0c2,0 4,0 5,0c1,0 1.69344,0.4588 3,1c0.92387,0.38268 3,0 4,1c0,0 1,0 1,1c0,1 1.4588,0.69344 2,2c0.38269,0.92388 -0.02675,1.77025 -1,2c-2.17625,0.51374 -3,1 -6,1c-1,0 -2,0 -3,0c-1,0 -3,0 -5,0c0,0 -2,0 -4,0c0,0 -1.186,-0.30745 -3,1c-1.14726,0.8269 -1.87856,1.49346 -5,2c-1.97418,0.32037 -4,1 -4,1c-2,0 -4,0 -5,0c-1,0 -1.99999,0 -2.99999,0c0,0 0,0 -1,0c-2,0 -5,0 -7,0c-3,0 -6,0 -8,0c0,0 -2,0 -3,-1c-2,-2 -4.29289,-1.29289 -5,-2c-0.70711,-0.70711 0,-1 0,-1c0,-1 -1,-3 -1,-4c0,0 0,-1 0,-2c0,-1 0,-2 0,-2c0,-1 -0.38268,-2.07612 0,-3c0.5412,-1.30656 0.69344,-1.4588 2,-2c0.92388,-0.38268 2.47427,-1.14935 3,-2c1.17557,-1.90211 4,-2 5,-3c2,-2 3,-2 3,-2c1,0 2,0 3,-1c1,-1 2.29289,-1.29289 3,-2c0.70711,-0.70711 1.01291,-0.83982 2,-1c3.12144,-0.50654 3.797,-1.2565 5,-2c2.68999,-1.66251 4.07612,-1.61732 4.99999,-2c2.61313,-1.08239 2,-2 3,-3c1,-1 1,-1 2,-2c1,-1 1.1731,-2.85273 2,-4c1.30745,-1.81399 1.9176,-2.38688 3,-5c0.38269,-0.92388 0,-2 0,-3c0,-2 0,-4 0,-5c0,-1 0,-2 0,-3c0,-1 0,-3 0,-5c0,-2 0.38269,-3.07612 0,-4c-0.5412,-1.30656 -1.07613,-1.61732 -2,-2c-1.30656,-0.5412 -1.69255,-1.18601 -3,-3c-0.8269,-1.14727 -3,-1 -4,-1c-1,0 -2,0 -3,0c0,0 -2.58578,0.58579 -3.99999,2c-0.70711,0.70711 -1,2 -1,2c-1,1 -1.61732,2.07612 -2,3c-0.5412,1.30656 -1,2 -1,3c0,0 -1,1 -2,1c-1,0 -2,1 -3,1c-3,0 -4,0 -5,0c-1,0 -2,0 -3,0c-2,0 -2.4588,0.30656 -3,-1c-0.38268,-0.92388 0,-2 0,-3l0,0l0,0" id="svg_12" stroke="#000" fill="none"/>
  <path d="m107.99999,18.79998c-1,0 -1,0 -1,-1c0,-1 0,-1 1,-1c1,0 2,0 3,0l0,0l2,0" id="svg_13" stroke="#000" fill="none"/>
  <path d="m193.99998,18.79998c0,0 1.07613,-1.61732 2,-2c2.61313,-1.08239 3.186,-2.69255 5,-4c1.14726,-0.82691 1.69344,-2.4588 3,-3c0.92387,-0.38268 1,-1 2,-1c0,0 1,0 3,0c1,0 1,0 3,0c2,0 3,0 4,0c1,0 2,0 5,0c1,0 1.22836,-1.14805 4,0c1.30656,0.5412 2.21167,1.71412 5,4c1.09367,0.8966 1.61731,2.07612 2,3c0.5412,1.30656 2,1 2,3c0,1 0,2 0,3c0,1 0,2 0,3c0,0 0.22975,1.02675 0,2c-0.51375,2.17625 -1,2 -2,3c-1,1 -1,2 -2,3c0,0 -1,0 -3,2c-1,1 -0.69344,1.45881 -2,2c-0.92387,0.38268 -1.29289,0.29289 -2,1c-0.70711,0.70711 -1.87856,1.49346 -5,2c-0.98709,0.16018 -2,1 -3,1c-1,0 -1,0 -2,0c-1,0 -3,0 -3,0c-1,0 0,0 0,1c0,0 1,0 4,1c6,2 11.30449,0.46926 15,2c1.30656,0.54119 2.4588,0.69344 3,2c0.38269,0.92388 2,2 4,6c1,2 2,6 4,8c1,1 1,2 1,3c0,1 0,1 0,2c0,2 0,3 0,3c0,1 -0.4588,2.69344 -1,4c-0.38269,0.92388 -1,3 -2,4c0,0 -0.15224,0.23463 -2,1c-1.30656,0.5412 -1.82375,2.48626 -4,3c-1.9465,0.4595 -3.15224,-0.76537 -5,0c-1.30656,0.5412 -1,1 -2,1c-1,0 -3,0 -5,0c-2,0 -5,0 -6,0c-1,0 -3,0 -4,0c-1,0 -3.02675,-0.77025 -4,-1c-2.17625,-0.51374 -4,-2 -5,-3c-1,-1 -1.71413,-2.21168 -4,-5c-0.89659,-1.09367 -2,-2 -2,-3c0,-1 0,-1 1,-1c1,0 2,0 3,0c2,0 3,0 6,0c4,0 5.15224,-0.76537 7,0c2.61313,1.08239 4,2 5,2c1,0 1.87856,0.49346 5,1c1.97418,0.32037 3,0 4,0c0,0 1.29289,-1.29289 2,-2c0.70711,-0.70711 0,-1 0,-4c0,-2 0,-3 0,-5c0,-1 0.41422,-2.58578 -1,-4c-0.70711,-0.70711 -2.29289,-0.29289 -3,-1c-0.70711,-0.70711 -1.4588,-0.69344 -2,-2c-0.38269,-0.92388 -1.15224,-0.23463 -3,-1c-1.30656,-0.54119 -2,-1 -3,-1c-2,0 -3,0 -4,0c-2,0 -3,0 -4,0c-2,0 -3,0 -4,0c-1,0 -2,0 -2,-1c0,-1 -1.02675,-1.77025 -2,-2c-2.17625,-0.51374 -2,-2 -3,-4c0,0 -1,-2 -1,-3c0,-1 0,-1 0,-2c0,-1 0.61731,-1.07612 1,-2c0.5412,-1.30656 1,-1 2,-1c1,0 1.29289,-0.29289 2,-1c0.70711,-0.70711 2,-1 3,-1c1,0 0.69344,-1.45881 2,-2c0.92387,-0.38268 2.07613,0.38268 3,0c1.30656,-0.5412 4.07613,-1.61732 5,-2c1.30656,-0.54119 3,-2 3,-2c1,0 0.61731,-0.07612 1,-1c0.5412,-1.30656 1,-2 2,-3c0,0 0,-1 0,-2c0,-2 -0.4588,-1.69344 -1,-3c-0.38269,-0.92388 -1,-1 -1,-1c-2,0 -4,0 -10,0c-2,0 -3,0 -4,0c-1,0 -2,0 -3,0c-2,0 -3,1 -3,1c-1,0 -3,0 -4,0c-1,0 -2.07613,0.38268 -3,0c-1.30656,-0.5412 0,-1 1,-1l1,-1l0,-1" id="svg_16" stroke="#000" fill="none"/>
 </g>
</svg>